<svg version="1.0" xmlns="http://www.w3.org/2000/svg" fill="#000" viewBox="0 0 512.000000 512.000000" preserveAspectRatio="xMidYMid meet"> <g transform="translate(0.000000,512.000000) scale(0.100000,-0.100000)" fill="#000000" stroke="none"> <path d="M1630 4960 c-29 -29 -26 -74 6 -99 23 -18 41 -21 115 -21 l89 0 0 -355 c0 -276 -3 -356 -12 -359 -183 -49 -267 -85 -373 -161 -141 -101 -268 -267 -325 -423 -61 -170 -61 -161 -58 -1248 l3 -989 23 -80 c91 -313 304 -539 606 -641 38 -13 90 -27 117 -30 27 -4 49 -9 49 -11 0 -3 -40 -74 -90 -157 -97 -165 -108 -202 -68 -230 20 -14 117 -16 848 -16 731 0 828 2 848 16 40 28 29 65 -68 230 -49 83 -90 154 -90 157 0 2 22 7 49 11 113 15 269 83 383 168 160 118 280 296 339 503 l23 80 3 988 c3 850 2 1001 -11 1077 -63 361 -329 651 -681 740 l-70 18 -3 356 -2 356 89 0 c74 0 92 3 115 21 32 25 35 70 6 99 -20 20 -33 20 -930 20 -897 0 -910 0 -930 -20z m1510 -470 l0 -350 -255 0 -255 0 0 150 0 150 105 0 c92 0 108 3 125 20 26 26 26 72 -1 96 -20 18 -40 19 -299 19 -259 0 -279 -1 -299 -19 -13 -12 -21 -31 -21 -52 0 -53 26 -64 147 -64 l103 0 0 -150 0 -150 -255 0 -255 0 0 350 0 350 580 0 580 0 0 -350z m230 -528 c110 -39 172 -72 255 -139 139 -113 253 -308 272 -465 l6 -48 -237 0 c-223 0 -237 -1 -256 -20 -25 -25 -26 -61 -1 -91 19 -24 21 -24 260 -27 l241 -3 0 -835 0 -834 -1350 0 -1350 0 0 834 0 835 211 3 c208 3 211 3 230 27 25 30 24 66 -1 91 -19 19 -33 20 -225 20 l-205 0 0 26 c0 71 56 219 117 312 118 178 330 315 528 342 33 4 364 7 735 7 l675 -2 95 -33z m526 -2653 c-18 -134 -97 -282 -215 -400 -121 -120 -255 -194 -401 -219 -45 -8 -278 -10 -760 -8 -673 4 -697 4 -756 25 -79 26 -176 76 -235 119 -153 112 -283 318 -305 483 l-7 51 1343 0 1343 0 -7 -51z m-729 -902 l71 -122 -339 -3 c-186 -1 -492 -1 -679 0 l-340 3 73 122 72 123 535 0 535 0 72 -123z"></path> <path d="M2037 3292 c-24 -26 -21 -75 4 -98 18 -17 37 -19 144 -19 140 0 165 11 165 70 0 57 -20 65 -167 65 -113 0 -132 -2 -146 -18z"></path> <path d="M2720 3290 c-25 -25 -26 -61 -1 -91 18 -23 25 -24 149 -24 148 0 172 10 172 70 0 57 -20 65 -168 65 -119 0 -134 -2 -152 -20z"></path> </g> </svg>